<svg width="35" height="35" viewBox="0 0 35 35" fill="none" xmlns="http://www.w3.org/2000/svg">
<g clip-path="url(#clip0_90_4)">
<path d="M34.9076 34.3255C34.7976 34.5931 34.5841 34.806 34.3157 34.9167C34.1826 34.9727 34.0406 35.0012 33.8987 35.0012H26.2412C25.6361 35.0012 25.1465 34.512 25.1465 33.9075C25.1465 33.3031 25.6361 32.8139 26.2412 32.8139L31.2516 32.8084L21.0922 22.6482C20.6642 22.2215 20.6642 21.5293 21.0922 21.1015C21.5191 20.6748 22.2111 20.6748 22.6391 21.1015L32.903 31.3659V26.2243C32.903 25.6199 33.2936 25.157 33.8987 25.157C34.5027 25.157 34.9923 25.6462 34.9923 26.2507V33.9075C34.9923 34.0501 34.9637 34.1917 34.9076 34.3255ZM33.8987 9.84325C33.2936 9.84325 32.903 9.27722 32.903 8.67278V3.63439L22.6391 13.8977C22.4246 14.1116 22.1451 14.2191 21.8657 14.2191C21.5851 14.2191 21.3057 14.1116 21.0922 13.8977C20.6642 13.4709 20.6642 12.7788 21.0922 12.3509L31.3528 2.09095H26.3017C25.6966 2.09095 25.1465 1.69604 25.1465 1.0927C25.1465 0.488273 25.6361 -0.000976562 26.2412 -0.000976562H33.8987C34.0406 -0.000976562 34.1826 0.0275447 34.3157 0.0834903C34.5841 0.194285 34.7976 0.407097 34.9076 0.674758C34.9637 0.808589 34.9923 0.950098 34.9923 1.0927V8.74957C34.9923 9.35291 34.5027 9.84325 33.8987 9.84325ZM3.72644 32.8084L8.73792 32.8139C9.34303 32.8139 9.83153 33.3031 9.83153 33.9075C9.83153 34.512 9.34303 35.0012 8.73792 35.0012H1.08043C0.938501 35.0012 0.796574 34.9727 0.662348 34.9167C0.394996 34.806 0.181554 34.5931 0.0704327 34.3255C0.015422 34.1917 -0.0131836 34.0501 -0.0131836 33.9075V26.2507C-0.0131836 25.6462 0.476412 25.157 1.08043 25.157C1.68555 25.157 2.09703 25.6199 2.09703 26.2243V31.3439L12.34 21.1015C12.768 20.6748 13.46 20.6748 13.8869 21.1015C14.3149 21.5293 14.3149 22.2215 13.8869 22.6482L3.72644 32.8084ZM13.1135 14.2191C12.834 14.2191 12.5535 14.1116 12.34 13.8977L2.09703 3.65523V8.67278C2.09703 9.27722 1.68555 9.84325 1.08043 9.84325C0.476412 9.84325 -0.0131836 9.35291 -0.0131836 8.74957V1.0927C-0.0131836 0.950098 0.015422 0.808589 0.0704327 0.674758C0.181554 0.407097 0.394996 0.194285 0.662348 0.0834903C0.795474 0.0275447 0.937401 -0.000976562 1.07823 -0.000976562C1.07933 -0.000976562 1.07933 -0.000976562 1.08043 -0.000976562H8.73792C9.34303 -0.000976562 9.83153 0.488273 9.83153 1.0927C9.83153 1.69604 9.30343 2.09095 8.69831 2.09095H3.62632L13.8869 12.3509C14.3149 12.7788 14.3149 13.4709 13.8869 13.8977C13.6735 14.1116 13.394 14.2191 13.1135 14.2191Z" fill="#FDFCFC"/>
</g>
<defs>
<clipPath id="clip0_90_4">
<rect width="35" height="35" fill="white"/>
</clipPath>
</defs>
</svg>
