<svg width="187" height="72" viewBox="0 0 187 72" fill="none" xmlns="http://www.w3.org/2000/svg">
<rect width="187" height="72" fill="#170F55"/>
<g clip-path="url(#clip0_13_13)">
<path d="M108.24 34.8129C106.71 33.5494 104.624 32.8537 102.367 32.8537C102.274 32.8537 102.183 32.8549 102.093 32.8573C101.499 30.8716 100.943 29.2465 100.565 28.1894C100.408 27.7499 100.26 27.3247 100.123 26.9145C101.858 25.323 103.416 23.7941 104.282 22.2515C106.735 17.8782 105.62 15.276 104.738 14.114C103.717 12.7706 102.036 12 100.125 12C98.3882 12 96.955 12.5786 95.9807 13.6731C94.0698 15.8196 94.0544 19.7924 95.9648 26.0621C92.3116 29.3845 88.3728 33.1478 88.3728 37.8324C88.3728 42.7818 91.6131 45.2094 94.3315 46.3742C97.1488 47.5816 99.9595 47.6543 100.078 47.6569L100.125 47.6574C100.509 47.6574 100.889 47.6441 101.264 47.6178L101.277 47.7738C101.444 49.7852 101.588 51.5224 101.277 53.0389C100.981 54.4842 99.8128 54.9212 98.9011 54.8565C98.5172 54.8292 97.6246 54.6741 97.6246 53.8267H93.8738C93.8738 56.0403 95.8543 57.788 98.583 57.9822C98.7493 57.994 98.9151 58 99.0806 58C100.338 57.9999 101.561 57.6612 102.571 57.0269C103.843 56.2273 104.674 55.0315 104.974 53.569C105.361 51.681 105.203 49.7696 105.019 47.5564L104.979 47.0771C104.974 47.0102 104.968 46.9434 104.962 46.8765C105.825 46.5731 106.617 46.1851 107.314 45.7189C109.481 44.2684 110.627 42.1906 110.627 39.7102C110.627 37.8235 109.779 36.0842 108.24 34.8129ZM98.9891 15.5465C99.1785 15.3338 99.4471 15.137 100.125 15.137C100.557 15.137 101.158 15.2514 101.572 15.7965C101.867 16.1851 102.69 17.703 100.886 20.9192C100.49 21.6246 99.8285 22.3944 99.0222 23.2085C97.6876 17.8888 98.4886 16.1086 98.9891 15.5465ZM100.16 44.5204C99.9399 44.5113 97.9 44.4044 95.9431 43.5395C93.3729 42.4037 92.1235 40.5369 92.1235 37.8324C92.1235 34.912 94.5153 32.1537 97.1641 29.6319C97.5275 30.6712 98.0036 32.0996 98.5046 33.784C96.8868 34.7366 96.1244 36.2827 96.1244 37.7583C96.1244 38.9462 96.7015 39.9611 97.7493 40.6162C98.5533 41.1188 99.5093 41.337 100.398 41.4008C100.597 42.4178 100.774 43.4536 100.921 44.4929C100.666 44.5105 100.412 44.5195 100.16 44.5204ZM104.555 43.5114C104.156 40.8957 103.583 38.3276 102.98 36.0203C105.271 36.245 106.877 37.7277 106.877 39.7103C106.877 41.5369 105.914 42.7569 104.555 43.5114Z" fill="#F4F2F2"/>
</g>
<path d="M47.1591 44.2727C45.9773 44.2727 44.9403 43.9915 44.0483 43.429C43.1619 42.8665 42.4688 42.0795 41.9688 41.0682C41.4744 40.0568 41.2273 38.875 41.2273 37.5227C41.2273 36.1591 41.4744 34.9687 41.9688 33.9517C42.4688 32.9347 43.1619 32.1449 44.0483 31.5824C44.9403 31.0199 45.9773 30.7386 47.1591 30.7386C48.3409 30.7386 49.375 31.0199 50.2614 31.5824C51.1534 32.1449 51.8466 32.9347 52.3409 33.9517C52.8409 34.9687 53.0909 36.1591 53.0909 37.5227C53.0909 38.875 52.8409 40.0568 52.3409 41.0682C51.8466 42.0795 51.1534 42.8665 50.2614 43.429C49.375 43.9915 48.3409 44.2727 47.1591 44.2727ZM47.1591 42.4659C48.0568 42.4659 48.7955 42.2358 49.375 41.7756C49.9545 41.3153 50.3835 40.7102 50.6619 39.9602C50.9403 39.2102 51.0795 38.3977 51.0795 37.5227C51.0795 36.6477 50.9403 35.8324 50.6619 35.0767C50.3835 34.321 49.9545 33.7102 49.375 33.2443C48.7955 32.7784 48.0568 32.5455 47.1591 32.5455C46.2614 32.5455 45.5227 32.7784 44.9432 33.2443C44.3636 33.7102 43.9347 34.321 43.6562 35.0767C43.3778 35.8324 43.2386 36.6477 43.2386 37.5227C43.2386 38.3977 43.3778 39.2102 43.6562 39.9602C43.9347 40.7102 44.3636 41.3153 44.9432 41.7756C45.5227 42.2358 46.2614 42.4659 47.1591 42.4659ZM61.1044 44.2727C60.0135 44.2727 59.0504 43.9972 58.2152 43.446C57.38 42.8892 56.7266 42.1051 56.255 41.0938C55.7834 40.0767 55.5476 38.875 55.5476 37.4886C55.5476 36.1136 55.7834 34.9205 56.255 33.9091C56.7266 32.8977 57.3828 32.1165 58.2237 31.5653C59.0646 31.0142 60.0362 30.7386 61.1385 30.7386C61.9908 30.7386 62.6641 30.8807 63.1584 31.1648C63.6584 31.4432 64.0391 31.7614 64.3004 32.1193C64.5675 32.4716 64.7749 32.7614 64.9226 32.9886H65.093V26.5455H67.1044V44H65.1612V41.9886H64.9226C64.7749 42.2273 64.5646 42.5284 64.2919 42.892C64.0192 43.25 63.63 43.571 63.1243 43.8551C62.6186 44.1335 61.9453 44.2727 61.1044 44.2727ZM61.3771 42.4659C62.1839 42.4659 62.8658 42.2557 63.4226 41.8352C63.9794 41.4091 64.4027 40.821 64.6925 40.071C64.9822 39.3153 65.1271 38.4432 65.1271 37.4545C65.1271 36.4773 64.9851 35.6222 64.701 34.8892C64.4169 34.1506 63.9964 33.5767 63.4396 33.1676C62.8828 32.7528 62.1953 32.5455 61.3771 32.5455C60.5249 32.5455 59.8146 32.7642 59.2464 33.2017C58.6839 33.6335 58.2607 34.2216 57.9766 34.9659C57.6982 35.7045 57.5589 36.5341 57.5589 37.4545C57.5589 38.3864 57.701 39.233 57.9851 39.9943C58.2749 40.75 58.701 41.3523 59.2635 41.8011C59.8317 42.2443 60.5362 42.4659 61.3771 42.4659ZM76.5561 44.2727C75.2947 44.2727 74.2067 43.9943 73.2919 43.4375C72.3828 42.875 71.6811 42.0909 71.1868 41.0852C70.6982 40.0739 70.4538 38.8977 70.4538 37.5568C70.4538 36.2159 70.6982 35.0341 71.1868 34.0114C71.6811 32.983 72.3686 32.1818 73.2493 31.608C74.1357 31.0284 75.1697 30.7386 76.3516 30.7386C77.0334 30.7386 77.7067 30.8523 78.3714 31.0795C79.0362 31.3068 79.6413 31.6761 80.1868 32.1875C80.7322 32.6932 81.1669 33.3636 81.4908 34.1989C81.8146 35.0341 81.9766 36.0625 81.9766 37.2841V38.1364H71.8857V36.3977H79.9311C79.9311 35.6591 79.7834 35 79.4879 34.4205C79.1982 33.8409 78.7834 33.3835 78.2436 33.0483C77.7095 32.7131 77.0788 32.5455 76.3516 32.5455C75.5504 32.5455 74.8572 32.7443 74.272 33.142C73.6925 33.5341 73.2464 34.0455 72.9339 34.6761C72.6214 35.3068 72.4652 35.983 72.4652 36.7045V37.8636C72.4652 38.8523 72.6357 39.6903 72.9766 40.3778C73.3232 41.0597 73.8033 41.5795 74.4169 41.9375C75.0305 42.2898 75.7436 42.4659 76.5561 42.4659C77.0845 42.4659 77.5618 42.392 77.9879 42.2443C78.4197 42.0909 78.7919 41.8636 79.1044 41.5625C79.4169 41.2557 79.6584 40.875 79.8288 40.4205L81.772 40.9659C81.5675 41.625 81.2237 42.2045 80.7408 42.7045C80.2578 43.1989 79.6612 43.5852 78.951 43.8636C78.2408 44.1364 77.4425 44.2727 76.5561 44.2727Z" fill="white"/>
<path d="M120.159 44.2727C118.977 44.2727 117.94 43.9915 117.048 43.429C116.162 42.8665 115.469 42.0795 114.969 41.0682C114.474 40.0568 114.227 38.875 114.227 37.5227C114.227 36.1591 114.474 34.9687 114.969 33.9517C115.469 32.9347 116.162 32.1449 117.048 31.5824C117.94 31.0199 118.977 30.7386 120.159 30.7386C121.341 30.7386 122.375 31.0199 123.261 31.5824C124.153 32.1449 124.847 32.9347 125.341 33.9517C125.841 34.9687 126.091 36.1591 126.091 37.5227C126.091 38.875 125.841 40.0568 125.341 41.0682C124.847 42.0795 124.153 42.8665 123.261 43.429C122.375 43.9915 121.341 44.2727 120.159 44.2727ZM120.159 42.4659C121.057 42.4659 121.795 42.2358 122.375 41.7756C122.955 41.3153 123.384 40.7102 123.662 39.9602C123.94 39.2102 124.08 38.3977 124.08 37.5227C124.08 36.6477 123.94 35.8324 123.662 35.0767C123.384 34.321 122.955 33.7102 122.375 33.2443C121.795 32.7784 121.057 32.5455 120.159 32.5455C119.261 32.5455 118.523 32.7784 117.943 33.2443C117.364 33.7102 116.935 34.321 116.656 35.0767C116.378 35.8324 116.239 36.6477 116.239 37.5227C116.239 38.3977 116.378 39.2102 116.656 39.9602C116.935 40.7102 117.364 41.3153 117.943 41.7756C118.523 42.2358 119.261 42.4659 120.159 42.4659ZM137.411 38.6477V30.9091H139.423V44H137.411V41.7841H137.275C136.968 42.4489 136.491 43.0142 135.843 43.4801C135.195 43.9403 134.377 44.1705 133.388 44.1705C132.57 44.1705 131.843 43.9915 131.207 43.6335C130.57 43.2699 130.07 42.7244 129.707 41.9972C129.343 41.2642 129.161 40.3409 129.161 39.2273V30.9091H131.173V39.0909C131.173 40.0455 131.44 40.8068 131.974 41.375C132.513 41.9432 133.201 42.2273 134.036 42.2273C134.536 42.2273 135.045 42.0994 135.562 41.8438C136.085 41.5881 136.522 41.196 136.874 40.6676C137.232 40.1392 137.411 39.4659 137.411 38.6477ZM145.118 36.125V44H143.107V30.9091H145.05V32.9545H145.22C145.527 32.2898 145.993 31.7557 146.618 31.3523C147.243 30.9432 148.05 30.7386 149.038 30.7386C149.925 30.7386 150.7 30.9205 151.365 31.2841C152.03 31.642 152.547 32.1875 152.916 32.9205C153.286 33.6477 153.47 34.5682 153.47 35.6818V44H151.459V35.8182C151.459 34.7898 151.192 33.9886 150.658 33.4148C150.124 32.8352 149.391 32.5455 148.459 32.5455C147.817 32.5455 147.243 32.6847 146.737 32.9631C146.237 33.2415 145.842 33.6477 145.553 34.1818C145.263 34.7159 145.118 35.3636 145.118 36.125ZM162.089 44.2727C160.998 44.2727 160.035 43.9972 159.2 43.446C158.364 42.8892 157.711 42.1051 157.239 41.0938C156.768 40.0767 156.532 38.875 156.532 37.4886C156.532 36.1136 156.768 34.9205 157.239 33.9091C157.711 32.8977 158.367 32.1165 159.208 31.5653C160.049 31.0142 161.021 30.7386 162.123 30.7386C162.975 30.7386 163.648 30.8807 164.143 31.1648C164.643 31.4432 165.023 31.7614 165.285 32.1193C165.552 32.4716 165.759 32.7614 165.907 32.9886H166.077V26.5455H168.089V44H166.146V41.9886H165.907C165.759 42.2273 165.549 42.5284 165.276 42.892C165.004 43.25 164.614 43.571 164.109 43.8551C163.603 44.1335 162.93 44.2727 162.089 44.2727ZM162.362 42.4659C163.168 42.4659 163.85 42.2557 164.407 41.8352C164.964 41.4091 165.387 40.821 165.677 40.071C165.967 39.3153 166.112 38.4432 166.112 37.4545C166.112 36.4773 165.969 35.6222 165.685 34.8892C165.401 34.1506 164.981 33.5767 164.424 33.1676C163.867 32.7528 163.18 32.5455 162.362 32.5455C161.509 32.5455 160.799 32.7642 160.231 33.2017C159.668 33.6335 159.245 34.2216 158.961 34.9659C158.683 35.7045 158.543 36.5341 158.543 37.4545C158.543 38.3864 158.685 39.233 158.969 39.9943C159.259 40.75 159.685 41.3523 160.248 41.8011C160.816 42.2443 161.521 42.4659 162.362 42.4659Z" fill="white"/>
<rect x="38.6422" y="12.3578" width="6" height="32.0208" transform="rotate(45 38.6422 12.3578)" fill="#D9D9D9"/>
<rect x="16" y="35.2279" width="6" height="32.0208" transform="rotate(-45 16 35.2279)" fill="#D9D9D9"/>
<defs>
<clipPath id="clip0_13_13">
<rect width="55" height="46" fill="white" transform="translate(72 12)"/>
</clipPath>
</defs>
</svg>
