<svg width="141" height="47" viewBox="0 0 141 47" fill="none" xmlns="http://www.w3.org/2000/svg">
<path d="M31.2656 30.1992C30.2656 30.1992 29.3906 30.0039 28.6406 29.6133C27.8906 29.2148 27.2656 28.6836 26.7656 28.0195C26.2656 27.3477 25.8906 26.5938 25.6406 25.7578C25.3906 24.9219 25.2656 24.0625 25.2656 23.1797C25.2656 22.2969 25.3906 21.4336 25.6406 20.5898C25.8906 19.7461 26.2656 18.9883 26.7656 18.3164C27.2656 17.6367 27.8906 17.0977 28.6406 16.6992C29.3906 16.293 30.2656 16.0898 31.2656 16.0898C32.2656 16.0898 33.1406 16.293 33.8906 16.6992C34.6406 17.0977 35.2656 17.6367 35.7656 18.3164C36.2656 18.9883 36.6406 19.7461 36.8906 20.5898C37.1406 21.4336 37.2656 22.2969 37.2656 23.1797C37.2656 24.0625 37.1406 24.9219 36.8906 25.7578C36.6406 26.5938 36.2656 27.3477 35.7656 28.0195C35.2656 28.6836 34.6406 29.2148 33.8906 29.6133C33.1406 30.0039 32.2656 30.1992 31.2656 30.1992ZM31.2656 29.1914C32.3594 29.1914 33.2656 28.8984 33.9844 28.3125C34.7109 27.7266 35.25 26.9766 35.6016 26.0625C35.9609 25.1406 36.1406 24.1797 36.1406 23.1797C36.1406 22.1641 35.957 21.1914 35.5898 20.2617C35.2305 19.332 34.6875 18.5742 33.9609 17.9883C33.2422 17.3945 32.3438 17.0977 31.2656 17.0977C30.1875 17.0977 29.2852 17.3945 28.5586 17.9883C27.8398 18.5742 27.2969 19.332 26.9297 20.2617C26.5703 21.1914 26.3906 22.1641 26.3906 23.1797C26.3906 24.1797 26.5664 25.1406 26.918 26.0625C27.2773 26.9766 27.8164 27.7266 28.5352 28.3125C29.2617 28.8984 30.1719 29.1914 31.2656 29.1914ZM40.3125 30C40.1172 30 39.9688 29.9492 39.8672 29.8477C39.7656 29.7383 39.7148 29.6211 39.7148 29.4961C39.7148 29.3711 39.7617 29.2578 39.8555 29.1562C39.957 29.0469 40.1055 28.9922 40.3008 28.9922H42.2109V17.2852H40.3477C40.1602 17.2852 40.0195 17.2344 39.9258 17.1328C39.832 17.0312 39.7852 16.918 39.7852 16.793C39.7852 16.6602 39.832 16.543 39.9258 16.4414C40.0273 16.332 40.1758 16.2773 40.3711 16.2773H44.5664C45.9102 16.2773 47.0781 16.5195 48.0703 17.0039C49.0703 17.4805 49.8477 18.2188 50.4023 19.2188C50.957 20.2188 51.2344 21.5039 51.2344 23.0742C51.2344 25.5508 50.6484 27.3242 49.4766 28.3945C48.3047 29.4648 46.6602 30 44.543 30H40.3125ZM43.3359 28.9922H44.625C46.5625 28.9922 47.9609 28.4961 48.8203 27.5039C49.6797 26.5117 50.1094 25.0352 50.1094 23.0742C50.1094 21.2227 49.6523 19.7969 48.7383 18.7969C47.8242 17.7891 46.5078 17.2852 44.7891 17.2852H43.3359V28.9922ZM54.8789 30C54.6836 30 54.5352 29.9492 54.4336 29.8477C54.332 29.7383 54.2812 29.6211 54.2812 29.4961C54.2812 29.3711 54.3281 29.2578 54.4219 29.1562C54.5234 29.0547 54.6719 29.0039 54.8672 29.0039H56.8594V17.2852H55.2773C55.0898 17.2852 54.9492 17.2344 54.8555 17.1328C54.7617 17.0312 54.7148 16.918 54.7148 16.793C54.7148 16.6602 54.7617 16.543 54.8555 16.4414C54.957 16.332 55.1055 16.2773 55.3008 16.2773H65.5898C66.0273 16.2773 66.2461 16.4883 66.2461 16.9102V20.0742C66.2461 20.2461 66.1953 20.375 66.0938 20.4609C66 20.5469 65.8945 20.5898 65.7773 20.5898C65.6602 20.5898 65.5508 20.5547 65.4492 20.4844C65.3477 20.4062 65.293 20.293 65.2852 20.1445L65.1211 17.2852H57.9844V22.3359H61.8047L61.957 20.7773C61.9727 20.5977 62.0273 20.4648 62.1211 20.3789C62.2227 20.293 62.3242 20.25 62.4258 20.25C62.5352 20.25 62.6367 20.3008 62.7305 20.4023C62.8242 20.4961 62.8711 20.6523 62.8711 20.8711V24.8789C62.8711 25.082 62.8242 25.2344 62.7305 25.3359C62.6367 25.4297 62.5352 25.4766 62.4258 25.4766C62.3164 25.4766 62.2148 25.4336 62.1211 25.3477C62.0273 25.2617 61.9727 25.1367 61.957 24.9727L61.8047 23.2383H57.9844V29.0039H65.1914L65.3789 26.0625C65.3867 25.9219 65.4414 25.8125 65.543 25.7344C65.6523 25.6484 65.7695 25.6055 65.8945 25.6055C66.0195 25.6055 66.1328 25.6562 66.2344 25.7578C66.3359 25.8516 66.3867 26.0039 66.3867 26.2148V29.3789C66.3867 29.793 66.168 30 65.7305 30H54.8789ZM71.2969 30.1992C71.1016 30.1992 70.957 30.1367 70.8633 30.0117C70.7773 29.8945 70.7344 29.668 70.7344 29.332V25.6523C70.7344 25.4648 70.7852 25.3281 70.8867 25.2422C70.9883 25.1484 71.1094 25.1016 71.25 25.1016C71.3906 25.1016 71.5156 25.1484 71.625 25.2422C71.7344 25.3359 71.7891 25.4805 71.7891 25.6758V27.0703C71.7891 27.4062 71.9805 27.7383 72.3633 28.0664C72.7461 28.3867 73.2344 28.6562 73.8281 28.875C74.4297 29.0859 75.0547 29.1914 75.7031 29.1914C76.5625 29.1914 77.3008 28.9844 77.918 28.5703C78.543 28.1484 78.8555 27.4375 78.8555 26.4375C78.8555 25.6797 78.6211 25.1211 78.1523 24.7617C77.6836 24.4023 77.0195 24.0781 76.1602 23.7891L74.2383 23.1328C73.6211 22.9219 73.0586 22.6875 72.5508 22.4297C72.0508 22.1719 71.6484 21.8281 71.3438 21.3984C71.0469 20.9688 70.8984 20.3945 70.8984 19.6758C70.8984 18.8945 71.082 18.2383 71.4492 17.707C71.8164 17.1758 72.3047 16.7734 72.9141 16.5C73.5312 16.2266 74.207 16.0898 74.9414 16.0898C75.5039 16.0898 76.1094 16.1602 76.7578 16.3008C77.4062 16.4336 77.9336 16.7227 78.3398 17.168C78.3398 16.4492 78.543 16.0898 78.9492 16.0898C79.1055 16.0898 79.2227 16.1523 79.3008 16.2773C79.3789 16.3945 79.418 16.6055 79.418 16.9102V19.875C79.418 20.0859 79.3633 20.2422 79.2539 20.3438C79.1523 20.4453 79.0273 20.4961 78.8789 20.4961C78.7461 20.4961 78.625 20.4492 78.5156 20.3555C78.4062 20.2617 78.3516 20.125 78.3516 19.9453V18.8789C78.3047 18.4727 78.1172 18.1406 77.7891 17.8828C77.4609 17.6172 77.0625 17.4219 76.5938 17.2969C76.1328 17.1641 75.6719 17.0977 75.2109 17.0977C74.2109 17.0977 73.4297 17.3242 72.8672 17.7773C72.3047 18.2305 72.0234 18.8438 72.0234 19.6172C72.0234 20.1562 72.1211 20.5703 72.3164 20.8594C72.5195 21.1484 72.8242 21.3867 73.2305 21.5742C73.6445 21.7539 74.168 21.9531 74.8008 22.1719L76.3945 22.7227C77.5352 23.1133 78.418 23.5742 79.043 24.1055C79.668 24.6289 79.9805 25.3906 79.9805 26.3906C79.9805 27.3125 79.7773 28.0547 79.3711 28.6172C78.9648 29.1719 78.4336 29.5742 77.7773 29.8242C77.1211 30.0742 76.418 30.1992 75.668 30.1992C75.043 30.1992 74.3594 30.0742 73.6172 29.8242C72.875 29.5742 72.2852 29.2227 71.8477 28.7695C71.8477 29.7227 71.6641 30.1992 71.2969 30.1992ZM89.3906 30.1992C88.3906 30.1992 87.5156 30.0039 86.7656 29.6133C86.0156 29.2148 85.3906 28.6836 84.8906 28.0195C84.3906 27.3477 84.0156 26.5938 83.7656 25.7578C83.5156 24.9219 83.3906 24.0625 83.3906 23.1797C83.3906 22.2969 83.5156 21.4336 83.7656 20.5898C84.0156 19.7461 84.3906 18.9883 84.8906 18.3164C85.3906 17.6367 86.0156 17.0977 86.7656 16.6992C87.5156 16.293 88.3906 16.0898 89.3906 16.0898C90.3906 16.0898 91.2656 16.293 92.0156 16.6992C92.7656 17.0977 93.3906 17.6367 93.8906 18.3164C94.3906 18.9883 94.7656 19.7461 95.0156 20.5898C95.2656 21.4336 95.3906 22.2969 95.3906 23.1797C95.3906 24.0625 95.2656 24.9219 95.0156 25.7578C94.7656 26.5938 94.3906 27.3477 93.8906 28.0195C93.3906 28.6836 92.7656 29.2148 92.0156 29.6133C91.2656 30.0039 90.3906 30.1992 89.3906 30.1992ZM89.3906 29.1914C90.4844 29.1914 91.3906 28.8984 92.1094 28.3125C92.8359 27.7266 93.375 26.9766 93.7266 26.0625C94.0859 25.1406 94.2656 24.1797 94.2656 23.1797C94.2656 22.1641 94.082 21.1914 93.7148 20.2617C93.3555 19.332 92.8125 18.5742 92.0859 17.9883C91.3672 17.3945 90.4688 17.0977 89.3906 17.0977C88.3125 17.0977 87.4102 17.3945 86.6836 17.9883C85.9648 18.5742 85.4219 19.332 85.0547 20.2617C84.6953 21.1914 84.5156 22.1641 84.5156 23.1797C84.5156 24.1797 84.6914 25.1406 85.043 26.0625C85.4023 26.9766 85.9414 27.7266 86.6602 28.3125C87.3867 28.8984 88.2969 29.1914 89.3906 29.1914ZM104.32 30.1992C102.922 30.1992 101.781 29.7578 100.898 28.875C100.016 27.9844 99.5742 26.7461 99.5742 25.1602V17.2852H97.875C97.6797 17.2852 97.5352 17.2344 97.4414 17.1328C97.3477 17.0312 97.3008 16.918 97.3008 16.793C97.3008 16.6602 97.3477 16.543 97.4414 16.4414C97.543 16.332 97.6914 16.2773 97.8867 16.2773H102.586C102.781 16.2773 102.926 16.332 103.02 16.4414C103.121 16.543 103.172 16.6602 103.172 16.793C103.172 16.918 103.125 17.0312 103.031 17.1328C102.938 17.2344 102.793 17.2852 102.598 17.2852H100.699V25.1602C100.699 26.4336 101.012 27.4258 101.637 28.1367C102.262 28.8398 103.156 29.1914 104.32 29.1914C105.414 29.1914 106.285 28.8164 106.934 28.0664C107.582 27.3164 107.906 26.3555 107.906 25.1836V17.2852H106.488C106.293 17.2852 106.145 17.2344 106.043 17.1328C105.949 17.0312 105.902 16.918 105.902 16.793C105.902 16.6602 105.953 16.543 106.055 16.4414C106.156 16.332 106.305 16.2773 106.5 16.2773H110.402C110.676 16.2773 110.879 16.332 111.012 16.4414C111.152 16.543 111.223 16.6602 111.223 16.793C111.223 16.918 111.156 17.0312 111.023 17.1328C110.891 17.2344 110.688 17.2852 110.414 17.2852H109.031V25.1836C109.031 26.1758 108.832 27.0508 108.434 27.8086C108.043 28.5586 107.492 29.1445 106.781 29.5664C106.078 29.9883 105.258 30.1992 104.32 30.1992ZM122.789 30.1875C122.508 30.1875 122.289 30.0391 122.133 29.7422L115.652 17.2969V28.9922H117.27C117.465 28.9922 117.609 29.0469 117.703 29.1562C117.797 29.2578 117.844 29.3711 117.844 29.4961C117.844 29.6211 117.793 29.7383 117.691 29.8477C117.598 29.9492 117.453 30 117.258 30H113.062C112.867 30 112.719 29.9492 112.617 29.8477C112.523 29.7383 112.477 29.6211 112.477 29.4961C112.477 29.3711 112.523 29.2578 112.617 29.1562C112.711 29.0469 112.855 28.9922 113.051 28.9922H114.527V17.2852H112.699C112.504 17.2852 112.359 17.2344 112.266 17.1328C112.172 17.0312 112.125 16.918 112.125 16.793C112.125 16.6602 112.172 16.543 112.266 16.4414C112.367 16.332 112.516 16.2773 112.711 16.2773H116.074C116.293 16.2773 116.449 16.3711 116.543 16.5586L122.238 27.7266V17.2852H120.492C120.297 17.2852 120.152 17.2344 120.059 17.1328C119.965 17.0312 119.918 16.918 119.918 16.793C119.918 16.6602 119.969 16.543 120.07 16.4414C120.172 16.332 120.32 16.2773 120.516 16.2773H124.465C124.66 16.2773 124.805 16.332 124.898 16.4414C125 16.543 125.051 16.6602 125.051 16.793C125.051 16.918 125.004 17.0312 124.91 17.1328C124.816 17.2344 124.676 17.2852 124.488 17.2852H123.363V29.4492C123.363 29.6992 123.305 29.8828 123.188 30C123.078 30.125 122.945 30.1875 122.789 30.1875ZM127.5 30C127.305 30 127.156 29.9492 127.055 29.8477C126.953 29.7383 126.902 29.6211 126.902 29.4961C126.902 29.3711 126.949 29.2578 127.043 29.1562C127.145 29.0469 127.293 28.9922 127.488 28.9922H129.398V17.2852H127.535C127.348 17.2852 127.207 17.2344 127.113 17.1328C127.02 17.0312 126.973 16.918 126.973 16.793C126.973 16.6602 127.02 16.543 127.113 16.4414C127.215 16.332 127.363 16.2773 127.559 16.2773H131.754C133.098 16.2773 134.266 16.5195 135.258 17.0039C136.258 17.4805 137.035 18.2188 137.59 19.2188C138.145 20.2188 138.422 21.5039 138.422 23.0742C138.422 25.5508 137.836 27.3242 136.664 28.3945C135.492 29.4648 133.848 30 131.73 30H127.5ZM130.523 28.9922H131.812C133.75 28.9922 135.148 28.4961 136.008 27.5039C136.867 26.5117 137.297 25.0352 137.297 23.0742C137.297 21.2227 136.84 19.7969 135.926 18.7969C135.012 17.7891 133.695 17.2852 131.977 17.2852H130.523V28.9922Z" fill="white"/>
<rect x="22.6422" width="6" height="32.0208" transform="rotate(45 22.6422 0)" fill="white"/>
<rect y="22.8701" width="6" height="32.0208" transform="rotate(-45 0 22.8701)" fill="white"/>
</svg>
