<svg width="158" height="47" viewBox="0 0 158 47" fill="none" xmlns="http://www.w3.org/2000/svg">
<g clip-path="url(#clip0_13_13)">
<g filter="url(#filter0_d_13_13)">
<path d="M92.8671 23.8129C91.337 22.5494 89.2514 21.8537 86.994 21.8537C86.9016 21.8537 86.8104 21.8549 86.7201 21.8573C86.1261 19.8716 85.5706 18.2465 85.1924 17.1894C85.0351 16.7499 84.8877 16.3247 84.7498 15.9145C86.4848 14.323 88.0436 12.7941 88.9089 11.2515C91.3623 6.87824 90.2477 4.27598 89.3649 3.11403C88.3443 1.77055 86.6631 1 84.7524 1C83.0154 1 81.5823 1.57857 80.6079 2.67307C78.6971 4.81963 78.6817 8.79244 80.5921 15.0621C76.9388 18.3845 73 22.1478 73 26.8324C73 31.7818 76.2403 34.2094 78.9587 35.3742C81.7761 36.5816 84.5868 36.6543 84.705 36.6569L84.7524 36.6574C85.1366 36.6574 85.5166 36.6441 85.8913 36.6178L85.9042 36.7738C86.0711 38.7852 86.2154 40.5224 85.9045 42.0389C85.6082 43.4842 84.44 43.9212 83.5283 43.8565C83.1445 43.8292 82.2518 43.6741 82.2518 42.8267H78.501C78.501 45.0403 80.4815 46.788 83.2102 46.9822C83.3765 46.994 83.5423 47 83.7078 47C84.9648 46.9999 86.1884 46.6612 87.1978 46.0269C88.4704 45.2273 89.3016 44.0315 89.6014 42.569C89.9884 40.681 89.8297 38.7696 89.6459 36.5564L89.6063 36.0771C89.6009 36.0102 89.5953 35.9434 89.5894 35.8765C90.4522 35.5731 91.2441 35.1851 91.9408 34.7189C94.1086 33.2684 95.2545 31.1906 95.2545 28.7102C95.2546 26.8235 94.4067 25.0842 92.8671 23.8129ZM83.6163 4.5465C83.8057 4.33381 84.0743 4.13701 84.7523 4.13701C85.1838 4.13701 85.7851 4.25141 86.1992 4.79652C86.4944 5.18509 87.3176 6.70298 85.5133 9.91915C85.1176 10.6246 84.4557 11.3944 83.6495 12.2085C82.3148 6.8888 83.1158 5.10865 83.6163 4.5465ZM84.7877 33.5204C84.5671 33.5113 82.5272 33.4044 80.5703 32.5395C78.0002 31.4037 76.7508 29.5369 76.7508 26.8324C76.7508 23.912 79.1425 21.1537 81.7913 18.6319C82.1548 19.6712 82.6309 21.0996 83.1318 22.784C81.514 23.7366 80.7516 25.2827 80.7516 26.7583C80.7516 27.9462 81.3287 28.9611 82.3766 29.6162C83.1805 30.1188 84.1366 30.337 85.0254 30.4008C85.2238 31.4178 85.4016 32.4536 85.5487 33.4929C85.2932 33.5105 85.0387 33.5195 84.7877 33.5204ZM89.1826 32.5114C88.7829 29.8957 88.2104 27.3276 87.6073 25.0203C89.8986 25.245 91.5038 26.7277 91.5038 28.7103C91.5038 30.5369 90.5414 31.7569 89.1826 32.5114Z" fill="white"/>
</g>
</g>
<g filter="url(#filter1_d_13_13)">
<path d="M31.2656 30.1992C30.2656 30.1992 29.3906 30.0039 28.6406 29.6133C27.8906 29.2148 27.2656 28.6836 26.7656 28.0195C26.2656 27.3477 25.8906 26.5938 25.6406 25.7578C25.3906 24.9219 25.2656 24.0625 25.2656 23.1797C25.2656 22.2969 25.3906 21.4336 25.6406 20.5898C25.8906 19.7461 26.2656 18.9883 26.7656 18.3164C27.2656 17.6367 27.8906 17.0977 28.6406 16.6992C29.3906 16.293 30.2656 16.0898 31.2656 16.0898C32.2656 16.0898 33.1406 16.293 33.8906 16.6992C34.6406 17.0977 35.2656 17.6367 35.7656 18.3164C36.2656 18.9883 36.6406 19.7461 36.8906 20.5898C37.1406 21.4336 37.2656 22.2969 37.2656 23.1797C37.2656 24.0625 37.1406 24.9219 36.8906 25.7578C36.6406 26.5938 36.2656 27.3477 35.7656 28.0195C35.2656 28.6836 34.6406 29.2148 33.8906 29.6133C33.1406 30.0039 32.2656 30.1992 31.2656 30.1992ZM31.2656 29.1914C32.3594 29.1914 33.2656 28.8984 33.9844 28.3125C34.7109 27.7266 35.25 26.9766 35.6016 26.0625C35.9609 25.1406 36.1406 24.1797 36.1406 23.1797C36.1406 22.1641 35.957 21.1914 35.5898 20.2617C35.2305 19.332 34.6875 18.5742 33.9609 17.9883C33.2422 17.3945 32.3438 17.0977 31.2656 17.0977C30.1875 17.0977 29.2852 17.3945 28.5586 17.9883C27.8398 18.5742 27.2969 19.332 26.9297 20.2617C26.5703 21.1914 26.3906 22.1641 26.3906 23.1797C26.3906 24.1797 26.5664 25.1406 26.918 26.0625C27.2773 26.9766 27.8164 27.7266 28.5352 28.3125C29.2617 28.8984 30.1719 29.1914 31.2656 29.1914ZM40.3125 30C40.1172 30 39.9688 29.9492 39.8672 29.8477C39.7656 29.7383 39.7148 29.6211 39.7148 29.4961C39.7148 29.3711 39.7617 29.2578 39.8555 29.1562C39.957 29.0469 40.1055 28.9922 40.3008 28.9922H42.2109V17.2852H40.3477C40.1602 17.2852 40.0195 17.2344 39.9258 17.1328C39.832 17.0312 39.7852 16.918 39.7852 16.793C39.7852 16.6602 39.832 16.543 39.9258 16.4414C40.0273 16.332 40.1758 16.2773 40.3711 16.2773H44.5664C45.9102 16.2773 47.0781 16.5195 48.0703 17.0039C49.0703 17.4805 49.8477 18.2188 50.4023 19.2188C50.957 20.2188 51.2344 21.5039 51.2344 23.0742C51.2344 25.5508 50.6484 27.3242 49.4766 28.3945C48.3047 29.4648 46.6602 30 44.543 30H40.3125ZM43.3359 28.9922H44.625C46.5625 28.9922 47.9609 28.4961 48.8203 27.5039C49.6797 26.5117 50.1094 25.0352 50.1094 23.0742C50.1094 21.2227 49.6523 19.7969 48.7383 18.7969C47.8242 17.7891 46.5078 17.2852 44.7891 17.2852H43.3359V28.9922ZM54.8789 30C54.6836 30 54.5352 29.9492 54.4336 29.8477C54.332 29.7383 54.2812 29.6211 54.2812 29.4961C54.2812 29.3711 54.3281 29.2578 54.4219 29.1562C54.5234 29.0547 54.6719 29.0039 54.8672 29.0039H56.8594V17.2852H55.2773C55.0898 17.2852 54.9492 17.2344 54.8555 17.1328C54.7617 17.0312 54.7148 16.918 54.7148 16.793C54.7148 16.6602 54.7617 16.543 54.8555 16.4414C54.957 16.332 55.1055 16.2773 55.3008 16.2773H65.5898C66.0273 16.2773 66.2461 16.4883 66.2461 16.9102V20.0742C66.2461 20.2461 66.1953 20.375 66.0938 20.4609C66 20.5469 65.8945 20.5898 65.7773 20.5898C65.6602 20.5898 65.5508 20.5547 65.4492 20.4844C65.3477 20.4062 65.293 20.293 65.2852 20.1445L65.1211 17.2852H57.9844V22.3359H61.8047L61.957 20.7773C61.9727 20.5977 62.0273 20.4648 62.1211 20.3789C62.2227 20.293 62.3242 20.25 62.4258 20.25C62.5352 20.25 62.6367 20.3008 62.7305 20.4023C62.8242 20.4961 62.8711 20.6523 62.8711 20.8711V24.8789C62.8711 25.082 62.8242 25.2344 62.7305 25.3359C62.6367 25.4297 62.5352 25.4766 62.4258 25.4766C62.3164 25.4766 62.2148 25.4336 62.1211 25.3477C62.0273 25.2617 61.9727 25.1367 61.957 24.9727L61.8047 23.2383H57.9844V29.0039H65.1914L65.3789 26.0625C65.3867 25.9219 65.4414 25.8125 65.543 25.7344C65.6523 25.6484 65.7695 25.6055 65.8945 25.6055C66.0195 25.6055 66.1328 25.6562 66.2344 25.7578C66.3359 25.8516 66.3867 26.0039 66.3867 26.2148V29.3789C66.3867 29.793 66.168 30 65.7305 30H54.8789Z" fill="white"/>
</g>
<g filter="url(#filter2_d_13_13)">
<path d="M104.266 30.1992C103.266 30.1992 102.391 30.0039 101.641 29.6133C100.891 29.2148 100.266 28.6836 99.7656 28.0195C99.2656 27.3477 98.8906 26.5938 98.6406 25.7578C98.3906 24.9219 98.2656 24.0625 98.2656 23.1797C98.2656 22.2969 98.3906 21.4336 98.6406 20.5898C98.8906 19.7461 99.2656 18.9883 99.7656 18.3164C100.266 17.6367 100.891 17.0977 101.641 16.6992C102.391 16.293 103.266 16.0898 104.266 16.0898C105.266 16.0898 106.141 16.293 106.891 16.6992C107.641 17.0977 108.266 17.6367 108.766 18.3164C109.266 18.9883 109.641 19.7461 109.891 20.5898C110.141 21.4336 110.266 22.2969 110.266 23.1797C110.266 24.0625 110.141 24.9219 109.891 25.7578C109.641 26.5938 109.266 27.3477 108.766 28.0195C108.266 28.6836 107.641 29.2148 106.891 29.6133C106.141 30.0039 105.266 30.1992 104.266 30.1992ZM104.266 29.1914C105.359 29.1914 106.266 28.8984 106.984 28.3125C107.711 27.7266 108.25 26.9766 108.602 26.0625C108.961 25.1406 109.141 24.1797 109.141 23.1797C109.141 22.1641 108.957 21.1914 108.59 20.2617C108.23 19.332 107.688 18.5742 106.961 17.9883C106.242 17.3945 105.344 17.0977 104.266 17.0977C103.188 17.0977 102.285 17.3945 101.559 17.9883C100.84 18.5742 100.297 19.332 99.9297 20.2617C99.5703 21.1914 99.3906 22.1641 99.3906 23.1797C99.3906 24.1797 99.5664 25.1406 99.918 26.0625C100.277 26.9766 100.816 27.7266 101.535 28.3125C102.262 28.8984 103.172 29.1914 104.266 29.1914ZM119.195 30.1992C117.797 30.1992 116.656 29.7578 115.773 28.875C114.891 27.9844 114.449 26.7461 114.449 25.1602V17.2852H112.75C112.555 17.2852 112.41 17.2344 112.316 17.1328C112.223 17.0312 112.176 16.918 112.176 16.793C112.176 16.6602 112.223 16.543 112.316 16.4414C112.418 16.332 112.566 16.2773 112.762 16.2773H117.461C117.656 16.2773 117.801 16.332 117.895 16.4414C117.996 16.543 118.047 16.6602 118.047 16.793C118.047 16.918 118 17.0312 117.906 17.1328C117.812 17.2344 117.668 17.2852 117.473 17.2852H115.574V25.1602C115.574 26.4336 115.887 27.4258 116.512 28.1367C117.137 28.8398 118.031 29.1914 119.195 29.1914C120.289 29.1914 121.16 28.8164 121.809 28.0664C122.457 27.3164 122.781 26.3555 122.781 25.1836V17.2852H121.363C121.168 17.2852 121.02 17.2344 120.918 17.1328C120.824 17.0312 120.777 16.918 120.777 16.793C120.777 16.6602 120.828 16.543 120.93 16.4414C121.031 16.332 121.18 16.2773 121.375 16.2773H125.277C125.551 16.2773 125.754 16.332 125.887 16.4414C126.027 16.543 126.098 16.6602 126.098 16.793C126.098 16.918 126.031 17.0312 125.898 17.1328C125.766 17.2344 125.562 17.2852 125.289 17.2852H123.906V25.1836C123.906 26.1758 123.707 27.0508 123.309 27.8086C122.918 28.5586 122.367 29.1445 121.656 29.5664C120.953 29.9883 120.133 30.1992 119.195 30.1992ZM137.664 30.1875C137.383 30.1875 137.164 30.0391 137.008 29.7422L130.527 17.2969V28.9922H132.145C132.34 28.9922 132.484 29.0469 132.578 29.1562C132.672 29.2578 132.719 29.3711 132.719 29.4961C132.719 29.6211 132.668 29.7383 132.566 29.8477C132.473 29.9492 132.328 30 132.133 30H127.938C127.742 30 127.594 29.9492 127.492 29.8477C127.398 29.7383 127.352 29.6211 127.352 29.4961C127.352 29.3711 127.398 29.2578 127.492 29.1562C127.586 29.0469 127.73 28.9922 127.926 28.9922H129.402V17.2852H127.574C127.379 17.2852 127.234 17.2344 127.141 17.1328C127.047 17.0312 127 16.918 127 16.793C127 16.6602 127.047 16.543 127.141 16.4414C127.242 16.332 127.391 16.2773 127.586 16.2773H130.949C131.168 16.2773 131.324 16.3711 131.418 16.5586L137.113 27.7266V17.2852H135.367C135.172 17.2852 135.027 17.2344 134.934 17.1328C134.84 17.0312 134.793 16.918 134.793 16.793C134.793 16.6602 134.844 16.543 134.945 16.4414C135.047 16.332 135.195 16.2773 135.391 16.2773H139.34C139.535 16.2773 139.68 16.332 139.773 16.4414C139.875 16.543 139.926 16.6602 139.926 16.793C139.926 16.918 139.879 17.0312 139.785 17.1328C139.691 17.2344 139.551 17.2852 139.363 17.2852H138.238V29.4492C138.238 29.6992 138.18 29.8828 138.062 30C137.953 30.125 137.82 30.1875 137.664 30.1875ZM142.375 30C142.18 30 142.031 29.9492 141.93 29.8477C141.828 29.7383 141.777 29.6211 141.777 29.4961C141.777 29.3711 141.824 29.2578 141.918 29.1562C142.02 29.0469 142.168 28.9922 142.363 28.9922H144.273V17.2852H142.41C142.223 17.2852 142.082 17.2344 141.988 17.1328C141.895 17.0312 141.848 16.918 141.848 16.793C141.848 16.6602 141.895 16.543 141.988 16.4414C142.09 16.332 142.238 16.2773 142.434 16.2773H146.629C147.973 16.2773 149.141 16.5195 150.133 17.0039C151.133 17.4805 151.91 18.2188 152.465 19.2188C153.02 20.2188 153.297 21.5039 153.297 23.0742C153.297 25.5508 152.711 27.3242 151.539 28.3945C150.367 29.4648 148.723 30 146.605 30H142.375ZM145.398 28.9922H146.688C148.625 28.9922 150.023 28.4961 150.883 27.5039C151.742 26.5117 152.172 25.0352 152.172 23.0742C152.172 21.2227 151.715 19.7969 150.801 18.7969C149.887 17.7891 148.57 17.2852 146.852 17.2852H145.398V28.9922Z" fill="white"/>
</g>
<rect x="22.6422" width="6" height="32.0208" transform="rotate(45 22.6422 0)" fill="white"/>
<rect y="22.8701" width="6" height="32.0208" transform="rotate(-45 0 22.8701)" fill="white"/>
<defs>
<filter id="filter0_d_13_13" x="69" y="1" width="30.2545" height="54" filterUnits="userSpaceOnUse" color-interpolation-filters="sRGB">
<feFlood flood-opacity="0" result="BackgroundImageFix"/>
<feColorMatrix in="SourceAlpha" type="matrix" values="0 0 0 0 0 0 0 0 0 0 0 0 0 0 0 0 0 0 127 0" result="hardAlpha"/>
<feOffset dy="4"/>
<feGaussianBlur stdDeviation="2"/>
<feComposite in2="hardAlpha" operator="out"/>
<feColorMatrix type="matrix" values="0 0 0 0 0 0 0 0 0 0 0 0 0 0 0 0 0 0 0.25 0"/>
<feBlend mode="normal" in2="BackgroundImageFix" result="effect1_dropShadow_13_13"/>
<feBlend mode="normal" in="SourceGraphic" in2="effect1_dropShadow_13_13" result="shape"/>
</filter>
<filter id="filter1_d_13_13" x="21.2656" y="16.0898" width="49.1211" height="22.1094" filterUnits="userSpaceOnUse" color-interpolation-filters="sRGB">
<feFlood flood-opacity="0" result="BackgroundImageFix"/>
<feColorMatrix in="SourceAlpha" type="matrix" values="0 0 0 0 0 0 0 0 0 0 0 0 0 0 0 0 0 0 127 0" result="hardAlpha"/>
<feOffset dy="4"/>
<feGaussianBlur stdDeviation="2"/>
<feComposite in2="hardAlpha" operator="out"/>
<feColorMatrix type="matrix" values="0 0 0 0 0.926667 0 0 0 0 0.03475 0 0 0 0 0.03475 0 0 0 0.8 0"/>
<feBlend mode="normal" in2="BackgroundImageFix" result="effect1_dropShadow_13_13"/>
<feBlend mode="normal" in="SourceGraphic" in2="effect1_dropShadow_13_13" result="shape"/>
</filter>
<filter id="filter2_d_13_13" x="94.2656" y="16.0898" width="63.0312" height="22.1094" filterUnits="userSpaceOnUse" color-interpolation-filters="sRGB">
<feFlood flood-opacity="0" result="BackgroundImageFix"/>
<feColorMatrix in="SourceAlpha" type="matrix" values="0 0 0 0 0 0 0 0 0 0 0 0 0 0 0 0 0 0 127 0" result="hardAlpha"/>
<feOffset dy="4"/>
<feGaussianBlur stdDeviation="2"/>
<feComposite in2="hardAlpha" operator="out"/>
<feColorMatrix type="matrix" values="0 0 0 0 0.926667 0 0 0 0 0.03475 0 0 0 0 0.03475 0 0 0 0.8 0"/>
<feBlend mode="normal" in2="BackgroundImageFix" result="effect1_dropShadow_13_13"/>
<feBlend mode="normal" in="SourceGraphic" in2="effect1_dropShadow_13_13" result="shape"/>
</filter>
<clipPath id="clip0_13_13">
<rect width="55" height="46" fill="white" transform="translate(56 1)"/>
</clipPath>
</defs>
</svg>
