<svg width="41" height="40" viewBox="0 0 41 40" fill="none" xmlns="http://www.w3.org/2000/svg">
<path d="M20.2282 5.98682C15.5625 5.98682 11.7666 9.78267 11.7666 14.4484C11.7666 16.7129 12.6596 19.2825 14.1554 21.322C15.8473 23.6289 18.0041 24.8995 20.2282 24.8995C22.4525 24.8995 24.6092 23.629 26.3012 21.322C27.797 19.2825 28.69 16.7129 28.69 14.4484C28.69 9.78267 24.894 5.98682 20.2282 5.98682ZM20.2282 23.0954C18.6171 23.0954 16.9339 22.0602 15.6102 20.2551C14.3522 18.5398 13.5707 16.3148 13.5707 14.4484C13.5707 10.7774 16.5572 7.79087 20.2282 7.79087C23.8992 7.79087 26.8858 10.7774 26.8858 14.4484C26.8859 18.2599 23.7512 23.0954 20.2282 23.0954Z" fill="white"/>
<path d="M20.2283 0C9.20032 0 0.228271 8.97193 0.228271 20C0.228271 31.028 9.2002 40 20.2283 40C31.2563 40 40.2283 31.0281 40.2283 20C40.2283 8.97193 31.2562 0 20.2283 0ZM20.2283 38.1959C16.6083 38.1958 13.232 37.1329 10.3946 35.3032C10.4932 32.5407 11.7438 29.9508 13.8613 28.1526C14.7027 27.4381 15.9314 27.3601 16.9188 27.9584C17.9853 28.6047 19.0989 28.9325 20.2286 28.9325C21.3581 28.9325 22.4713 28.6049 23.5374 27.9589C24.5237 27.3611 25.7492 27.4363 26.5866 28.1459C28.7056 29.9415 29.9633 32.5389 30.0618 35.3034C27.2244 37.133 23.8482 38.1959 20.2283 38.1959ZM31.7623 34.0627C31.3728 31.2384 29.9569 28.6372 27.7529 26.7695C26.3229 25.5579 24.253 25.4158 22.6024 26.4161C21.042 27.3615 19.4145 27.3614 17.8538 26.4156C16.2013 25.4141 14.1277 25.5597 12.6935 26.7776C10.4913 28.6477 9.08113 31.2414 8.69266 34.0615C4.62884 30.7216 2.03233 25.6585 2.03233 20.0001C2.03233 9.96668 10.1951 1.80406 20.2283 1.80406C30.2616 1.80406 38.4242 9.96669 38.4242 20C38.4242 25.6591 35.8271 30.7228 31.7623 34.0627Z" fill="white"/>
</svg>
