<svg width="50" height="50" viewBox="0 0 50 50" fill="none" xmlns="http://www.w3.org/2000/svg">
<path d="M23.4773 9.18998C23.9595 8.10794 24.2008 7.56691 24.5366 7.40031C24.8283 7.25556 25.1708 7.25556 25.4625 7.40031C25.7983 7.56691 26.0395 8.10794 26.5218 9.18998L30.3635 17.8086C30.5062 18.1285 30.5775 18.2884 30.6879 18.4109C30.7854 18.5192 30.9048 18.6059 31.0379 18.6653C31.1885 18.7324 31.3627 18.7507 31.711 18.7875L41.095 19.7779C42.2731 19.9022 42.862 19.9644 43.1243 20.2323C43.352 20.465 43.4579 20.7908 43.4104 21.113C43.3558 21.4838 42.9158 21.8803 42.0358 22.6734L35.026 28.9905C34.766 29.2249 34.6358 29.3422 34.5535 29.4849C34.4806 29.6113 34.435 29.7515 34.4198 29.8965C34.4025 30.0605 34.4387 30.2317 34.5114 30.5745L36.4693 39.8051C36.7152 40.964 36.8381 41.5434 36.6643 41.8755C36.5133 42.1642 36.2362 42.3655 35.9152 42.4199C35.5456 42.4824 35.0325 42.1865 34.0062 41.5947L25.8323 36.8801C25.5289 36.7051 25.3773 36.6178 25.216 36.5834C25.0733 36.5532 24.9258 36.5532 24.7831 36.5834C24.6218 36.6178 24.4702 36.7051 24.1668 36.8801L15.9929 41.5947C14.9667 42.1865 14.4536 42.4824 14.084 42.4199C13.7629 42.3655 13.4858 42.1642 13.3349 41.8755C13.1611 41.5434 13.284 40.964 13.5298 39.8051L15.4877 30.5745C15.5603 30.2317 15.5967 30.0605 15.5794 29.8965C15.5641 29.7515 15.5186 29.6113 15.4457 29.4849C15.3633 29.3422 15.2332 29.2249 14.973 28.9905L7.96342 22.6734C7.0834 21.8803 6.64338 21.4838 6.58867 21.113C6.54117 20.7908 6.64702 20.465 6.87481 20.2323C7.13706 19.9644 7.72613 19.9022 8.90425 19.7779L18.2882 18.7875C18.6365 18.7507 18.8106 18.7324 18.9612 18.6653C19.0944 18.6059 19.2137 18.5192 19.3113 18.4109C19.4216 18.2884 19.4929 18.1285 19.6355 17.8086L23.4773 9.18998Z" stroke="white" stroke-width="3" stroke-linecap="round" stroke-linejoin="round"/>
</svg>
