<svg width="50" height="50" viewBox="0 0 50 50" fill="none" xmlns="http://www.w3.org/2000/svg">
<path d="M33.3342 18.7503C34.6419 20.4912 35.4167 22.6553 35.4167 25.0003C35.4167 27.3453 34.6419 29.5092 33.3342 31.2503M37.5 11.0246C41.3358 14.4578 43.75 19.4471 43.75 25.0003C43.75 30.5534 41.3358 35.5426 37.5 38.9759M9.58333 18.7503H11.4608C12.6086 18.7503 13.1825 18.7503 13.7143 18.6072C14.1855 18.4804 14.6307 18.2719 15.0298 17.991C15.4801 17.6741 15.8475 17.2332 16.5823 16.3515L22.0529 9.78669C22.9606 8.69748 23.4144 8.15288 23.8108 8.09619C24.1542 8.04711 24.4994 8.17211 24.7317 8.42959C25 8.72692 25 9.43584 25 10.8537V39.1467C25 40.5646 25 41.2736 24.7317 41.5709C24.4994 41.8284 24.1542 41.9534 23.8108 41.9042C23.4146 41.8476 22.9606 41.303 22.0529 40.2138L16.5823 33.649C15.8475 32.7674 15.4801 32.3263 15.0298 32.0094C14.6307 31.7286 14.1855 31.5201 13.7143 31.3934C13.1825 31.2503 12.6086 31.2503 11.4608 31.2503H9.58333C8.41656 31.2503 7.83317 31.2503 7.38752 31.0232C6.99552 30.8234 6.67681 30.5046 6.47706 30.1128C6.25 29.6671 6.25 29.0836 6.25 27.9169V22.0836C6.25 20.9167 6.25 20.3334 6.47706 19.8878C6.67681 19.4958 6.99552 19.177 7.38752 18.9773C7.83317 18.7503 8.41656 18.7503 9.58333 18.7503Z" stroke="white" stroke-width="3" stroke-linecap="round" stroke-linejoin="round"/>
</svg>
